HIERARCHY
ROOT Hips
{
	OFFSET 0.00 0.00 0.00
	CHANNELS 6 Xposition Yposition Zposition Xrotation Yrotation Zrotation
	JOINT Spine
	{
		OFFSET 0.00000 5.19526 0.00000
		CHANNELS 3 Xrotation Yrotation Zrotation
		JOINT Head
		{
			OFFSET 0.00000 15.65388 0.00000
			CHANNELS 3 Xrotation Yrotation Zrotation
			End Site
			{
				OFFSET 0.00000 4.52755 0.00000
			}
		}
		JOINT LeftShoulder
		{
			OFFSET 0.00000 10.32977 0.00000
			CHANNELS 3 Xrotation Yrotation Zrotation
			JOINT LeftArm
			{
				OFFSET 6.99601 0.00000 0.00000
				CHANNELS 3 Xrotation Yrotation Zrotation
				JOINT LeftForeArm
				{
					OFFSET 10.20930 0.00000 0.00000
					CHANNELS 3 Yrotation Zrotation Xrotation
					JOINT LeftHand
					{
						OFFSET 8.56316 0.00000 0.00000
						CHANNELS 3 Xrotation Yrotation Zrotation
						JOINT LeftHandThumb1
						{
							OFFSET 0.00000 0.00000 0.00000
							CHANNELS 3 Xrotation Zrotation Yrotation
							End Site
							{
								OFFSET 0.00000 0.00000 3.93700
							}
						}
						End Site
						{
							OFFSET 3.93700 0.00000 0.00000
						}
					}
				}
			}
		}
		JOINT RightShoulder
		{
			OFFSET 0.00000 10.32977 0.00000
			CHANNELS 3 Xrotation Yrotation Zrotation
			JOINT RightArm
			{
				OFFSET -6.99601 0.00000 0.00000
				CHANNELS 3 Xrotation Yrotation Zrotation
				JOINT RightForeArm
				{
					OFFSET -10.20930 0.00000 0.00000
					CHANNELS 3 Yrotation Zrotation Xrotation
					JOINT RightHand
					{
						OFFSET -8.56316 0.00000 0.00000
						CHANNELS 3 Xrotation Yrotation Zrotation
						JOINT RightHandThumb1
						{
							OFFSET 0.00000 0.00000 0.00000
							CHANNELS 3 Xrotation Zrotation Yrotation
							End Site
							{
								OFFSET 0.00000 0.00000 3.93700
							}
						}
						End Site
						{
							OFFSET -3.93700 0.00000 0.00000
						}
					}
				}
			}
		}
	}
	JOINT LeftUpLeg
	{
		OFFSET 3.35136 0.00000 0.00000
		CHANNELS 3 Xrotation Yrotation Zrotation
		JOINT LeftLeg
		{
			OFFSET 0.00000 -16.34683 0.00000
			CHANNELS 3 Xrotation Yrotation Zrotation
			JOINT LeftFoot
			{
				OFFSET 0.00000 -13.95979 0.00000
				CHANNELS 3 Xrotation Yrotation Zrotation
				JOINT LeftToeBase
				{
					OFFSET 0.00000 -1.33694 4.98954
					CHANNELS 3 Xrotation Yrotation Zrotation
					End Site
					{
						OFFSET 0.00000 0.00000 2.95275
					}
				}
			}
		}
	}
	JOINT RightUpLeg
	{
		OFFSET -3.35136 0.00000 0.00000
		CHANNELS 3 Xrotation Yrotation Zrotation
		JOINT RightLeg
		{
			OFFSET 0.00000 -16.34683 0.00000
			CHANNELS 3 Xrotation Yrotation Zrotation
			JOINT RightFoot
			{
				OFFSET 0.00000 -13.95979 0.00000
				CHANNELS 3 Xrotation Yrotation Zrotation
				JOINT RightToeBase
				{
					OFFSET 0.00000 -1.33694 4.98954
					CHANNELS 3 Xrotation Yrotation Zrotation
					End Site
					{
						OFFSET 0.00000 0.00000 2.95275
					}
				}
			}
		}
	}
}
MOTION
Frames:	15
Frame Time: 0.008333
1.4899 31.8713 -6.6551 5.5979 -8.2836 -2.6142 -6.4236 7.1016 2.1017 3.9083 -6.5928 -0.8804 -11.3593 6.1779 35.7662 -22.1728 -6.1752 -32.9984 -6.4508 0.0000 23.3127 4.3735 13.8385 -17.7320 32.8623 0.0000 24.3270 7.4751 -22.4820 -23.1863 -27.5615 13.2013 24.3871 0.4805 -0.0000 1.4759 2.5406 -12.6751 11.4318 33.1476 -0.0000 -26.2537 0.8684 4.3710 3.6558 -3.5131 0.0000 -0.0000 -13.6525 17.3458 -1.6788 5.1327 -0.0000 -0.0000 -1.9783 1.5047 1.0470 0.9923 -0.0000 -0.0000 -10.5843 -26.0102 13.9390 8.6190 -0.0000 -0.0000
1.4902 31.8716 -6.6537 5.5955 -8.2750 -2.6081 -6.4200 7.1010 2.0933 3.9096 -6.5899 -0.8580 -11.2897 6.2430 35.7523 -22.2722 -6.2223 -32.9903 -6.4062 0.0000 23.3051 4.3592 13.7734 -17.7543 32.8623 0.0000 24.3270 7.4924 -22.4821 -23.1638 -27.5555 13.2012 24.3756 0.4624 -0.0000 1.4914 2.5250 -12.6084 11.4210 33.1476 -0.0000 -26.2537 0.8682 4.3754 3.6476 -3.5033 0.0000 -0.0000 -13.6562 17.3295 -1.6826 5.1624 -0.0000 -0.0000 -1.9756 1.4864 1.0411 1.0066 -0.0000 -0.0000 -10.5970 -25.9797 13.8667 8.5949 -0.0000 -0.0000
1.4908 31.8715 -6.6522 5.5967 -8.2733 -2.6089 -6.4224 7.1082 2.0959 3.9051 -6.5949 -0.8376 -11.2833 6.2483 35.7496 -22.2791 -6.2432 -32.9826 -6.3966 0.0000 23.2948 4.3627 13.7542 -17.7904 32.8623 0.0000 24.3270 7.4878 -22.4856 -23.1663 -27.5192 13.2077 24.3759 0.4788 -0.0000 1.4971 2.5471 -12.6595 11.4740 33.1476 -0.0000 -26.2537 0.8761 4.3780 3.6459 -3.5185 0.0000 -0.0000 -13.6544 17.3276 -1.6741 5.2380 -0.0000 -0.0000 -1.9728 1.4999 1.0388 0.9999 -0.0000 -0.0000 -10.5965 -26.0128 13.9330 8.6643 -0.0000 -0.0000
1.4917 31.8715 -6.6513 5.6015 -8.2747 -2.6046 -6.4282 7.1074 2.0954 3.9090 -6.5916 -0.8186 -11.2754 6.2518 35.7576 -22.2634 -6.2487 -32.9838 -6.4054 -0.0000 23.2961 4.3698 13.7655 -17.8041 32.8623 0.0000 24.3270 7.4874 -22.4754 -23.1565 -27.5009 13.2152 24.3653 0.4624 -0.0000 1.4691 2.5488 -12.6329 11.5048 33.1476 -0.0000 -26.2537 0.8702 4.3704 3.6428 -3.5094 0.0000 -0.0000 -13.6579 17.3289 -1.6768 5.1642 -0.0000 -0.0000 -1.9784 1.5106 1.0329 1.0032 -0.0000 -0.0000 -10.5936 -26.0201 13.9448 8.6206 -0.0000 -0.0000
1.4921 31.8710 -6.6497 5.5995 -8.2675 -2.6084 -6.4298 7.1031 2.1068 3.9189 -6.5987 -0.8144 -11.2811 6.2809 35.7413 -22.2663 -6.3274 -32.9762 -6.3674 0.0000 23.2861 4.3683 13.7431 -17.8248 32.8623 0.0000 24.3270 7.5169 -22.4986 -23.1555 -27.5474 13.2159 24.3851 0.4641 0.0000 1.4993 2.5476 -12.6505 11.4841 33.1476 -0.0000 -26.2537 0.8769 4.3626 3.6436 -3.5146 0.0000 -0.0000 -13.6592 17.3338 -1.6715 5.1516 -0.0000 -0.0000 -1.9739 1.5071 1.0347 1.0080 -0.0000 -0.0000 -10.6075 -26.0337 13.9704 8.6646 -0.0000 -0.0000
1.4927 31.8709 -6.6478 5.5999 -8.2580 -2.6055 -6.4317 7.1013 2.1063 3.9104 -6.6006 -0.8020 -11.2824 6.2759 35.7487 -22.2415 -6.3499 -32.9792 -6.3555 -0.0000 23.2839 4.3688 13.7349 -17.8369 32.8623 0.0000 24.3270 7.5039 -22.5033 -23.1689 -27.6005 13.1775 24.4213 0.4734 -0.0000 1.5177 2.5506 -12.6829 11.4692 33.1476 -0.0000 -26.2537 0.8759 4.3648 3.6427 -3.5064 0.0000 -0.0000 -13.6610 17.3165 -1.6899 5.1533 -0.0000 -0.0000 -1.9705 1.4781 1.0313 1.0083 -0.0000 -0.0000 -10.6134 -26.0170 13.9415 8.6543 -0.0000 -0.0000
1.4935 31.8706 -6.6465 5.6003 -8.2560 -2.6039 -6.4318 7.1025 2.1081 3.9091 -6.6006 -0.7823 -11.2796 6.2759 35.7587 -22.2532 -6.3411 -32.9900 -6.3597 0.0000 23.2925 4.3720 13.7315 -17.8529 32.8623 0.0000 24.3270 7.4766 -22.4847 -23.1788 -27.4973 13.1933 24.4049 0.4786 -0.0000 1.4555 2.5549 -12.6948 11.4777 33.1476 -0.0000 -26.2537 0.8795 4.3738 3.6373 -3.5123 0.0000 -0.0000 -13.6688 17.3120 -1.7125 5.2035 -0.0000 -0.0000 -1.9685 1.5015 1.0261 1.0075 -0.0000 -0.0000 -10.6138 -26.0327 13.9587 8.6359 -0.0000 -0.0000
1.4943 31.8704 -6.6453 5.6008 -8.2482 -2.6037 -6.4334 7.0959 2.1129 3.9086 -6.6016 -0.7720 -11.2835 6.2679 35.7681 -22.2512 -6.3240 -33.0033 -6.3703 -0.0000 23.2962 4.3759 13.7443 -17.8525 32.8623 0.0000 24.3270 7.4989 -22.5037 -23.1687 -27.5474 13.1967 24.4200 0.4730 0.0000 1.4821 2.5576 -12.7230 11.4650 33.1476 -0.0000 -26.2537 0.8797 4.3693 3.6355 -3.5138 0.0000 -0.0000 -13.6611 17.3037 -1.6991 5.1321 -0.0000 -0.0000 -1.9679 1.4919 1.0240 1.0142 -0.0000 -0.0000 -10.6235 -26.0289 13.9468 8.6490 -0.0000 -0.0000
1.4944 31.8704 -6.6445 5.6068 -8.2462 -2.6047 -6.4390 7.0932 2.1175 3.9056 -6.5960 -0.7572 -11.2720 6.2833 35.7717 -22.2870 -6.3196 -33.0122 -6.3772 0.0000 23.3246 4.3921 13.7832 -17.8685 32.8623 0.0000 24.3270 7.5031 -22.5085 -23.1554 -27.5519 13.2126 24.4166 0.4481 -0.0000 1.4452 2.5602 -12.7769 11.4300 33.1476 -0.0000 -26.2537 0.8763 4.3749 3.6384 -3.5119 0.0000 -0.0000 -13.6684 17.2940 -1.7090 5.1780 -0.0000 -0.0000 -1.9695 1.4910 1.0261 1.0082 -0.0000 -0.0000 -10.6135 -26.0293 13.9426 8.6330 -0.0000 -0.0000
1.4948 31.8701 -6.6427 5.6082 -8.2399 -2.6051 -6.4428 7.0879 2.1242 3.9042 -6.6055 -0.7470 -11.2752 6.2739 35.7702 -22.2864 -6.3036 -33.0094 -6.3778 0.0000 23.3195 4.3773 13.7103 -17.8990 32.8623 0.0000 24.3270 7.4825 -22.5049 -23.1674 -27.5454 13.1974 24.4261 0.4775 0.0000 1.4730 2.5724 -12.7657 11.4927 33.1476 -0.0000 -26.2537 0.8796 4.3648 3.6377 -3.5206 0.0000 -0.0000 -13.6551 17.2930 -1.7060 5.0863 -0.0000 -0.0000 -1.9671 1.4927 1.0251 1.0104 -0.0000 -0.0000 -10.6228 -26.0389 13.9576 8.6595 -0.0000 -0.0000
1.4970 31.8704 -6.6408 5.6056 -8.2360 -2.5925 -6.4392 7.0854 2.1197 3.9082 -6.6013 -0.7457 -11.2697 6.2792 35.7671 -22.3006 -6.2914 -33.0183 -6.3992 -0.0000 23.3152 4.3938 13.7735 -17.8864 32.8623 0.0000 24.3270 7.4662 -22.5062 -23.1687 -27.5567 13.2001 24.4335 0.4707 0.0000 1.4967 2.5722 -12.8125 11.4520 33.1476 -0.0000 -26.2537 0.8778 4.4035 3.6186 -3.5109 0.0000 -0.0000 -13.6623 17.2649 -1.7048 5.1878 -0.0000 -0.0000 -1.9629 1.4892 1.0064 1.0139 -0.0000 -0.0000 -10.6253 -26.0309 13.9577 8.6442 -0.0000 -0.0000
1.4956 31.8698 -6.6405 5.6144 -8.2334 -2.5985 -6.4544 7.0840 2.1184 3.9120 -6.5761 -0.7307 -11.2729 6.2647 35.7935 -22.3055 -6.2699 -33.0375 -6.4153 -0.0000 23.3469 4.4013 13.7742 -17.9145 32.8623 0.0000 24.3270 7.4921 -22.4975 -23.1457 -27.5530 13.1873 24.4211 0.4776 0.0000 1.4765 2.5855 -12.8327 11.4923 33.1476 -0.0000 -26.2537 0.8775 4.3648 3.6294 -3.5227 0.0000 -0.0000 -13.6693 17.2970 -1.6825 5.1725 -0.0000 -0.0000 -1.9709 1.5029 1.0168 1.0141 -0.0000 -0.0000 -10.6300 -26.0585 13.9702 8.6772 -0.0000 -0.0000
1.4964 31.8702 -6.6396 5.6179 -8.2255 -2.6002 -6.4516 7.0812 2.1343 3.9052 -6.6155 -0.7025 -11.2906 6.2624 35.7667 -22.2997 -6.2884 -33.0203 -6.4007 -0.0000 23.3533 4.3951 13.7074 -17.9705 32.8623 0.0000 24.3270 7.4881 -22.5373 -23.1476 -27.5808 13.2152 24.4371 0.4842 0.0000 1.4638 2.5923 -12.8619 11.4965 33.1476 -0.0000 -26.2537 0.8746 4.3498 3.6302 -3.5210 0.0000 -0.0000 -13.6643 17.3011 -1.6929 5.1149 -0.0000 -0.0000 -1.9711 1.4905 1.0167 1.0151 -0.0000 -0.0000 -10.6303 -26.0387 13.9265 8.6475 -0.0000 -0.0000
1.4961 31.8698 -6.6389 5.6238 -8.2218 -2.5970 -6.4629 7.0735 2.1269 3.9088 -6.5915 -0.6991 -11.2663 6.2713 35.7834 -22.3131 -6.2861 -33.0289 -6.4042 0.0000 23.3694 4.3992 13.7147 -17.9776 32.8623 0.0000 24.3270 7.5054 -22.5212 -23.1348 -27.5654 13.2087 24.4281 0.4834 -0.0000 1.4496 2.6063 -12.8801 11.5416 33.1476 -0.0000 -26.2537 0.8721 4.3474 3.6278 -3.5261 0.0000 -0.0000 -13.6655 17.3066 -1.6986 5.1299 -0.0000 -0.0000 -1.9761 1.4906 1.0141 1.0178 -0.0000 -0.0000 -10.6401 -26.0417 13.9280 8.6510 -0.0000 -0.0000
1.4982 31.8703 -6.6368 5.6238 -8.2194 -2.5831 -6.4590 7.0614 2.1276 3.9150 -6.6289 -0.6619 -11.2759 6.2824 35.7651 -22.3039 -6.2896 -33.0229 -6.4199 0.0000 23.3783 4.4221 13.7746 -17.9933 32.8623 0.0000 24.3270 7.5081 -22.5355 -23.1447 -27.5882 13.2244 24.4485 0.4812 -0.0000 1.4499 2.5947 -12.8869 11.4856 33.1476 -0.0000 -26.2537 0.8680 4.3738 3.6106 -3.5073 0.0000 -0.0000 -13.6642 17.2646 -1.7089 5.1667 -0.0000 -0.0000 -1.9681 1.4878 0.9963 1.0081 -0.0000 -0.0000 -10.6358 -26.0484 13.9304 8.6375 -0.0000 -0.0000
